<svg width="210" height="216" viewBox="0 0 210 216" fill="none" xmlns="http://www.w3.org/2000/svg">
<path d="M34.1242 138.043C34.1242 90.0326 113.056 71.9583 124.579 138.042C129.188 153.293 149.353 150.469 153.962 143.126L185.65 112.061C192.564 101.329 182.193 80.4306 162.028 90.0326L148.201 101.894C142.439 90.5974 136.678 84.3844 131.493 80.4306L128.612 51.0599L143.592 20.5595C148.201 5.30928 126.883 -9.37613 111.904 7.56856L96.3477 39.1986C94.0432 51.0599 96.3477 55.5784 96.3477 62.9211C68.4624 60.1528 41.0097 64.5926 22.6013 83.3844C5.31694 101.894 1.55949 114.32 0.131632 135.783C-1.59682 161.765 14.0029 187.833 28.9388 199.043C65.8121 226.72 102.61 214.256 117.665 205.256C141.287 191.136 124.579 165.154 106.142 174.756C68.746 194.232 34.1242 171.767 34.1242 138.043Z" fill="white"/>
<path d="M206.758 37.6664C212.334 35.8646 210.475 25.0539 203.04 26.8557L191.887 28.6575L190.028 17.8468C186.779 10.8903 176.683 14.9276 178.702 19.9744L180.721 32.0865L167.722 34.0628C160.286 37.6664 164.004 44.8735 169.58 44.8735L182.592 43.0717L184.451 53.8824C186.31 61.0895 197.463 59.2877 195.604 50.2788L193.746 39.4681L206.758 37.6664Z" fill="white"/>
</svg>
